<svg xmlns="http://www.w3.org/2000/svg" viewBox="0 0 640 640"><!--!Custom icon based on Font Awesome style for consistent SVG family.--><g transform="translate(640 0) scale(-1 1)"><path d="M480 96C497.7 96 512 110.3 512 128L512 512C512 529.7 497.7 544 480 544C462.3 544 448 529.7 448 512L448 128C448 110.3 462.3 96 480 96zM406.6 342.6C419.1 330.1 419.1 309.8 406.6 297.3L278.6 169.3C266.1 156.8 245.8 156.8 233.3 169.3C220.8 181.8 220.8 202.1 233.3 214.6L306.7 288L96 288C78.3 288 64 302.3 64 320C64 337.7 78.3 352 96 352L306.7 352L233.3 425.4C220.8 437.9 220.8 458.2 233.3 470.7C245.8 483.2 266.1 483.2 278.6 470.7L406.6 342.7z"/></g></svg>
